<svg xmlns="http://www.w3.org/2000/svg" width="1100" height="520" viewBox="0 0 1100 520">
  <defs>
    <style>
      .bg { fill: #0b0b0b; }
      .panel { fill: #0e0e0e; stroke: #202020; stroke-width: 1; }
      .panel2 { fill: #141414; stroke: #202020; stroke-width: 1; }
      .divider { stroke: #202020; stroke-width: 1; }
      .title { fill: #ededed; font: 600 18px 'Segoe UI', sans-serif; }
      .desc { fill: #9aa0a6; font: 400 13px 'Segoe UI', sans-serif; }
      .text { fill: #ededed; font: 500 14px 'Segoe UI', sans-serif; }
      .subtext { fill: #9aa0a6; font: 400 12px 'Segoe UI', sans-serif; }
      .item { fill: #141414; stroke: #2a2a2a; stroke-width: 1; }
      .itemSel { fill: #111a22; stroke: #1da1f2; stroke-width: 1.2; }
      .accent { fill: #1da1f2; }
    </style>
  </defs>

  <rect class="bg" x="0" y="0" width="1100" height="520" />

  <rect class="panel" x="40" y="40" width="1020" height="440" rx="6" />

  <text class="title" x="70" y="90">Theme</text>
  <text class="desc" x="70" y="115">Change UI theme</text>
  <text class="subtext" x="70" y="145">方案 B：左側清單 + 右側預覽</text>

  <rect class="panel" x="360" y="70" width="670" height="380" rx="6" />

  <rect class="panel2" x="380" y="95" width="230" height="330" rx="6" />
  <text class="subtext" x="395" y="120">Theme list</text>

  <rect class="itemSel" x="395" y="140" width="200" height="34" rx="4" />
  <text class="text" x="410" y="162">WaveUI-2025</text>

  <rect class="item" x="395" y="180" width="200" height="34" rx="4" />
  <text class="text" x="410" y="202">WaveUI-2026/2</text>

  <rect class="item" x="395" y="220" width="200" height="34" rx="4" />
  <text class="text" x="410" y="242">Synapse X</text>

  <rect class="item" x="395" y="260" width="200" height="34" rx="4" />
  <text class="text" x="410" y="282">KRNL</text>

  <rect class="item" x="395" y="300" width="200" height="34" rx="4" />
  <text class="text" x="410" y="322">Fluxus</text>

  <rect class="item" x="395" y="340" width="200" height="34" rx="4" />
  <text class="text" x="410" y="362">Arceus X</text>

  <rect class="panel2" x="630" y="95" width="380" height="330" rx="6" />
  <text class="subtext" x="645" y="120">Preview</text>

  <rect x="650" y="140" width="340" height="260" rx="10" fill="#0f1626" stroke="#323232" stroke-width="1" />
  <rect x="650" y="140" width="340" height="42" rx="10" fill="#121c31" />

  <circle cx="668" cy="161" r="6" fill="#2d7dff" />
  <text x="686" y="166" font-family="'Segoe UI', sans-serif" font-size="13" font-weight="600" fill="#c8d6f7">Wave Executor v2025</text>

  <rect x="675" y="210" width="190" height="18" rx="4" fill="#1a1a1a" stroke="#2a2a2a" />
  <text x="685" y="224" class="subtext">設定 / 導覽文字</text>

  <rect x="675" y="245" width="140" height="32" rx="6" fill="#1da1f2" />
  <text x="715" y="266" font-family="'Segoe UI', sans-serif" font-size="13" font-weight="700" fill="#ffffff">Primary</text>

  <rect x="825" y="245" width="140" height="32" rx="6" fill="#1a1a1a" stroke="#2a2a2a" />
  <text x="862" y="266" font-family="'Segoe UI', sans-serif" font-size="13" font-weight="600" fill="#ededed">Secondary</text>

  <rect x="675" y="295" width="290" height="10" rx="5" fill="#1a1a1a" />
  <rect x="675" y="295" width="170" height="10" rx="5" fill="#1da1f2" />

  <text x="675" y="340" class="subtext">這裡會顯示即時預覽（可做色卡/簡易元件）</text>

  <text class="subtext" x="360" y="465">選到 Theme 後：存 theme 設定 + 呼叫 MainWindow.ApplyTheme()</text>
</svg>
